# xmcd CD database file
#
# Track frame offsets:
#	150
#	18545
#	37357
#	52570
#
# Disc length: 949 seconds
#
# Revision: 0
# Processed by: cddbd v1.5.1PL0 Copyright (c) Steve Scherf et al.
# Submitted via: CDex 1.51
#
DISCID=2b03b304
DTITLE=unicorn table - JINKI:AOBAN
DYEAR=2004
DGENRE=Anime
TTITLE0=ソラ
TTITLE1=TO BE FREE
TTITLE2=ソラ (off vocal version)
TTITLE3=TO BE FREE (off vocal version)
EXTD=YEAR: 2004
EXTT0=
EXTT1=
EXTT2=
EXTT3=
PLAYORDER=
